<svg width="25" height="24" viewBox="0 0 25 24" fill="none" xmlns="http://www.w3.org/2000/svg">
<path d="M1.80198 22.5721C3.6573 24.3575 6.16928 24.3474 7.95163 22.5924C9.5568 21.0199 10.0154 19.0924 12.6316 15.7346L16.8217 19.7924L16.9572 20.6852C17.0198 21.0808 17.2803 21.4359 17.6139 21.659L20.918 23.8199C21.2932 24.0633 21.6685 24.0633 21.9395 23.7996L23.9303 21.8619C24.1909 21.5982 24.17 21.2228 23.9303 20.8678L21.731 17.662C21.4913 17.3171 21.1265 17.0838 20.72 17.0229L19.8132 16.8911L15.3833 12.5796C15.769 12.1839 16.1755 11.768 16.6237 11.3318C18.8647 12.2955 21.533 11.9303 23.3049 10.1956C25.254 8.30866 25.5563 5.30584 24.0345 2.93199L22.8463 4.08848V4.09863L21.1682 5.71163C20.9076 5.97539 20.5845 5.98554 20.3135 5.71163L19.1461 4.57543C18.8542 4.29138 18.8438 3.97689 19.1044 3.72328L20.7721 2.10013L21.9708 0.943638C19.5422 -0.537483 16.4673 -0.253432 14.5182 1.64362C12.986 3.14503 12.4857 5.27541 13.0173 7.23333L7.3054 1.65376C5.76277 0.152354 4.1055 0.14221 2.59414 1.61319L1.12448 3.05373C-0.386875 4.51456 -0.376452 6.12756 1.16617 7.62897L6.9927 13.2998C4.61623 14.8012 3.09445 15.3186 1.78114 16.5766C-0.0220658 18.3214 -0.0324889 20.7562 1.80198 22.5721ZM17.8849 5.45801L19.3962 6.91885C20.178 7.6797 21.1786 7.69998 21.9186 6.97971L23.3258 5.60004C23.503 6.87827 23.0964 8.1565 22.1479 9.07966C20.449 10.7332 17.6347 10.6521 15.8315 8.91734C14.0387 7.17246 13.9658 4.41311 15.6752 2.76968C16.6133 1.85666 17.9266 1.46102 19.2295 1.62333L17.8223 2.98272C17.051 3.73342 17.0823 4.69716 17.8849 5.45801ZM2.28145 6.38118C1.55183 5.67105 1.56225 4.96093 2.27102 4.26094L3.83449 2.71895C4.55369 2.01897 5.29373 2.02912 6.02335 2.73924L12.4544 8.9985C10.891 10.4492 9.54637 11.5245 8.37898 12.3564L2.28145 6.38118ZM8.63956 8.29852C8.81675 8.49127 9.13987 8.47098 9.30664 8.30866C9.50468 8.11592 9.50468 7.82172 9.31706 7.63912L5.52304 3.9566C5.33543 3.774 5.04358 3.78414 4.86638 3.9566C4.67877 4.13921 4.67877 4.42326 4.86638 4.60586L8.63956 8.29852ZM7.31582 9.57675C7.50344 9.7695 7.80571 9.75935 7.99333 9.57675C8.17052 9.40429 8.18094 9.12024 7.99333 8.93763L4.1993 5.24498C4.03253 5.07252 3.71984 5.07252 3.53222 5.24498C3.34461 5.42758 3.33418 5.73192 3.5218 5.90438L7.31582 9.57675ZM14.6746 10.0333C14.8622 10.2057 15.0498 10.3782 15.2478 10.5202C8.39983 17.378 9.1086 19.0924 6.73213 21.4156C5.64812 22.4808 4.16803 22.5213 3.01107 21.4054C1.8541 20.2591 1.90621 18.8287 2.99022 17.7736C5.37712 15.4607 7.12821 16.1505 14.1742 9.48545C14.3306 9.67819 14.4974 9.8608 14.6746 10.0333ZM18.7187 20.2286L18.4998 19.0924L13.7052 14.4259C13.872 14.223 14.0492 14.0303 14.2368 13.8172L19.0835 18.5345L20.2509 18.7272L22.1688 21.2025L21.2516 22.0953L18.7187 20.2286ZM4.84554 20.8373C5.52304 20.8373 6.07547 20.2997 6.07547 19.6301C6.07547 18.9707 5.52304 18.433 4.84554 18.433C4.16803 18.433 3.60519 18.9707 3.60519 19.6301C3.60519 20.2997 4.16803 20.8373 4.84554 20.8373Z" fill="#FF0000"/>
</svg>
